<?xml version="1.0" encoding="UTF-8" standalone="no"?>
<!DOCTYPE svg PUBLIC "-//W3C//DTD SVG 1.1//EN"
 "http://www.w3.org/Graphics/SVG/1.1/DTD/svg11.dtd">
<!-- Generated by graphviz version 6.0.1 (20220911.1526)
 -->
<!-- Title: G Pages: 1 -->
<svg width="360pt" height="141pt"
 viewBox="0.00 0.00 360.00 141.00" xmlns="http://www.w3.org/2000/svg" xmlns:xlink="http://www.w3.org/1999/xlink">
<g id="graph0" class="graph" transform="scale(1 1) rotate(0) translate(4 137)">
<title>G</title>
<polygon fill="white" stroke="none" points="-4,4 -4,-137 356,-137 356,4 -4,4"/>
<g id="clust1" class="cluster">
<title>cluster_paas</title>
<polygon fill="none" stroke="black" points="0.3,-13.02 0.3,-133.02 102.3,-133.02 102.3,-13.02 0.3,-13.02"/>
<text text-anchor="middle" x="49.3" y="-117.82" font-family="Times,serif" font-size="14.00">PaaS resources</text>
</g>
<g id="clust2" class="cluster">
<title>cluster_ec2</title>
<polygon fill="none" stroke="black" points="113.97,0.13 113.97,-91.87 351.97,-91.87 351.97,0.13 113.97,0.13"/>
<text text-anchor="middle" x="232.97" y="-76.67" font-family="Times,serif" font-size="14.00">EC2 instance</text>
</g>
<!-- Q -->
<g id="node1" class="node">
<title>Q</title>
<polygon fill="none" stroke="black" points="87.93,-57.25 7.93,-57.25 7.93,-21.25 87.93,-21.25 87.93,-57.25"/>
<text text-anchor="middle" x="47.93" y="-35.55" font-family="Times,serif" font-size="14.00">SQS Queue</text>
</g>
<!-- B -->
<g id="node2" class="node">
<title>B</title>
<polygon fill="none" stroke="black" points="94.16,-102.47 21.16,-102.47 21.16,-66.47 94.16,-66.47 94.16,-102.47"/>
<text text-anchor="middle" x="57.66" y="-80.77" font-family="Times,serif" font-size="14.00">S3 Bucket</text>
</g>
<!-- QP -->
<g id="node3" class="node">
<title>QP</title>
<polygon fill="none" stroke="black" points="213.88,-61.13 121.88,-61.13 121.88,-25.13 213.88,-25.13 213.88,-61.13"/>
<text text-anchor="middle" x="167.88" y="-39.43" font-family="Times,serif" font-size="14.00">qprocessor.py</text>
</g>
<!-- QP&#45;&gt;Q -->
<g id="edge2" class="edge">
<title>QP&#45;&gt;Q</title>
<path fill="none" stroke="black" d="M121.85,-41.64C114.13,-41.39 106.09,-41.13 98.27,-40.88"/>
<polygon fill="black" stroke="black" points="98.27,-37.38 88.16,-40.55 98.05,-44.37 98.27,-37.38"/>
</g>
<!-- QP&#45;&gt;B -->
<g id="edge3" class="edge">
<title>QP&#45;&gt;B</title>
<path fill="none" stroke="black" d="M121.78,-60.42C115.88,-62.63 109.85,-64.9 103.95,-67.11"/>
<polygon fill="black" stroke="black" points="102.34,-63.97 94.2,-70.76 104.8,-70.53 102.34,-63.97"/>
</g>
<!-- SU -->
<g id="node4" class="node">
<title>SU</title>
<polygon fill="none" stroke="black" points="343.89,-43.51 227.89,-43.51 227.89,-7.51 343.89,-7.51 343.89,-43.51"/>
<text text-anchor="middle" x="285.89" y="-21.81" font-family="Times,serif" font-size="14.00">qprocessor.service</text>
</g>
<!-- SU&#45;&gt;QP -->
<g id="edge1" class="edge">
<title>SU&#45;&gt;QP</title>
<path fill="none" stroke="black" d="M227.58,-34.22C226.45,-34.39 225.31,-34.55 224.18,-34.72"/>
<polygon fill="black" stroke="black" points="223.45,-31.29 214.08,-36.23 224.49,-38.22 223.45,-31.29"/>
</g>
</g>
</svg>
