<?xml version="1.0" encoding="UTF-8" standalone="no"?>
<!DOCTYPE svg PUBLIC "-//W3C//DTD SVG 1.1//EN"
 "http://www.w3.org/Graphics/SVG/1.1/DTD/svg11.dtd">
<!-- Generated by graphviz version 6.0.1 (20220911.1526)
 -->
<!-- Title: G Pages: 1 -->
<svg width="329pt" height="207pt"
 viewBox="0.00 0.00 329.39 207.00" xmlns="http://www.w3.org/2000/svg" xmlns:xlink="http://www.w3.org/1999/xlink">
<g id="graph0" class="graph" transform="scale(1 1) rotate(0) translate(4 203)">
<title>G</title>
<polygon fill="white" stroke="none" points="-4,4 -4,-203 325.39,-203 325.39,4 -4,4"/>
<g id="clust1" class="cluster">
<title>cluster_publishers</title>
<polygon fill="none" stroke="black" points="7,-8 7,-191 80,-191 80,-8 7,-8"/>
<text text-anchor="middle" x="43.5" y="-175.8" font-family="Times,serif" font-size="14.00">Publishers</text>
</g>
<g id="clust2" class="cluster">
<title>cluster_subscribers</title>
<polygon fill="none" stroke="black" points="238.39,-8 238.39,-191 318.39,-191 318.39,-8 238.39,-8"/>
<text text-anchor="middle" x="278.39" y="-175.8" font-family="Times,serif" font-size="14.00">Subscribers</text>
</g>
<!-- Topic -->
<g id="node1" class="node">
<title>Topic</title>
<ellipse fill="none" stroke="black" cx="159.2" cy="-88" rx="31.4" ry="18"/>
<text text-anchor="middle" x="159.2" y="-84.3" font-family="Times,serif" font-size="14.00">Topic</text>
</g>
<!-- S1 -->
<g id="node5" class="node">
<title>S1</title>
<ellipse fill="none" stroke="black" cx="278.39" cy="-142" rx="27" ry="18"/>
<text text-anchor="middle" x="278.39" y="-138.3" font-family="Times,serif" font-size="14.00">S1</text>
</g>
<!-- Topic&#45;&gt;S1 -->
<g id="edge4" class="edge">
<title>Topic&#45;&gt;S1</title>
<path fill="none" stroke="black" d="M184.2,-99.06C202.27,-107.38 227.18,-118.86 246.7,-127.86"/>
<polygon fill="black" stroke="black" points="245.25,-131.04 255.8,-132.05 248.18,-124.68 245.25,-131.04"/>
<text text-anchor="middle" x="218.39" y="-121.8" font-family="Times,serif" font-size="14.00">M1</text>
</g>
<!-- S2 -->
<g id="node6" class="node">
<title>S2</title>
<ellipse fill="none" stroke="black" cx="278.39" cy="-88" rx="27" ry="18"/>
<text text-anchor="middle" x="278.39" y="-84.3" font-family="Times,serif" font-size="14.00">S2</text>
</g>
<!-- Topic&#45;&gt;S2 -->
<g id="edge5" class="edge">
<title>Topic&#45;&gt;S2</title>
<path fill="none" stroke="black" d="M190.68,-88C206.04,-88 224.77,-88 240.89,-88"/>
<polygon fill="black" stroke="black" points="241.04,-91.5 251.04,-88 241.04,-84.5 241.04,-91.5"/>
<text text-anchor="middle" x="218.39" y="-91.8" font-family="Times,serif" font-size="14.00">M1</text>
</g>
<!-- S3 -->
<g id="node7" class="node">
<title>S3</title>
<ellipse fill="none" stroke="black" cx="278.39" cy="-34" rx="27" ry="18"/>
<text text-anchor="middle" x="278.39" y="-30.3" font-family="Times,serif" font-size="14.00">S3</text>
</g>
<!-- Topic&#45;&gt;S3 -->
<g id="edge6" class="edge">
<title>Topic&#45;&gt;S3</title>
<path fill="none" stroke="black" d="M184.2,-76.94C202.27,-68.62 227.18,-57.14 246.7,-48.14"/>
<polygon fill="black" stroke="black" points="248.18,-51.32 255.8,-43.95 245.25,-44.96 248.18,-51.32"/>
<text text-anchor="middle" x="218.39" y="-67.8" font-family="Times,serif" font-size="14.00">M1</text>
</g>
<!-- P1 -->
<g id="node2" class="node">
<title>P1</title>
<ellipse fill="none" stroke="black" cx="43" cy="-142" rx="27" ry="18"/>
<text text-anchor="middle" x="43" y="-138.3" font-family="Times,serif" font-size="14.00">P1</text>
</g>
<!-- P1&#45;&gt;Topic -->
<g id="edge1" class="edge">
<title>P1&#45;&gt;Topic</title>
<path fill="none" stroke="black" d="M65.48,-131.84C82.28,-123.9 105.94,-112.71 125.15,-103.63"/>
<polygon fill="black" stroke="black" points="126.9,-106.67 134.45,-99.23 123.91,-100.34 126.9,-106.67"/>
<text text-anchor="middle" x="100" y="-122.8" font-family="Times,serif" font-size="14.00">M1</text>
</g>
<!-- P2 -->
<g id="node3" class="node">
<title>P2</title>
<ellipse fill="none" stroke="black" cx="43" cy="-88" rx="27" ry="18"/>
<text text-anchor="middle" x="43" y="-84.3" font-family="Times,serif" font-size="14.00">P2</text>
</g>
<!-- P2&#45;&gt;Topic -->
<g id="edge2" class="edge">
<title>P2&#45;&gt;Topic</title>
<path fill="none" stroke="black" d="M70.2,-88C84.24,-88 101.86,-88 117.63,-88"/>
<polygon fill="black" stroke="black" points="117.67,-91.5 127.67,-88 117.67,-84.5 117.67,-91.5"/>
</g>
<!-- P3 -->
<g id="node4" class="node">
<title>P3</title>
<ellipse fill="none" stroke="black" cx="43" cy="-34" rx="27" ry="18"/>
<text text-anchor="middle" x="43" y="-30.3" font-family="Times,serif" font-size="14.00">P3</text>
</g>
<!-- P3&#45;&gt;Topic -->
<g id="edge3" class="edge">
<title>P3&#45;&gt;Topic</title>
<path fill="none" stroke="black" d="M65.48,-44.16C82.28,-52.1 105.94,-63.29 125.15,-72.37"/>
<polygon fill="black" stroke="black" points="123.91,-75.66 134.45,-76.77 126.9,-69.33 123.91,-75.66"/>
</g>
</g>
</svg>
