<?xml version="1.0" encoding="UTF-8" standalone="no"?>
<!DOCTYPE svg PUBLIC "-//W3C//DTD SVG 1.1//EN"
 "http://www.w3.org/Graphics/SVG/1.1/DTD/svg11.dtd">
<!-- Generated by graphviz version 6.0.1 (20220911.1526)
 -->
<!-- Title: G Pages: 1 -->
<svg width="546pt" height="520pt"
 viewBox="0.00 0.00 546.07 520.00" xmlns="http://www.w3.org/2000/svg" xmlns:xlink="http://www.w3.org/1999/xlink">
<g id="graph0" class="graph" transform="scale(1 1) rotate(0) translate(4 516)">
<title>G</title>
<polygon fill="white" stroke="none" points="-4,4 -4,-516 542.07,-516 542.07,4 -4,4"/>
<g id="clust1" class="cluster">
<title>cluster_publishers</title>
<polygon fill="none" stroke="black" points="8,-155 8,-338 239.38,-338 239.38,-155 8,-155"/>
<text text-anchor="middle" x="123.69" y="-322.8" font-family="Times,serif" font-size="14.00">Publishers</text>
</g>
<g id="clust2" class="cluster">
<title>cluster_endpoints</title>
<polygon fill="none" stroke="black" points="387.48,-8 387.48,-504 534.07,-504 534.07,-8 387.48,-8"/>
<text text-anchor="middle" x="460.77" y="-488.8" font-family="Times,serif" font-size="14.00">Endpoints</text>
</g>
<g id="clust3" class="cluster">
<title>cluster_human</title>
<polygon fill="none" stroke="black" points="399.27,-344 399.27,-473 522.27,-473 522.27,-344 399.27,-344"/>
<text text-anchor="middle" x="460.77" y="-457.8" font-family="Times,serif" font-size="14.00">Machine to Human</text>
</g>
<g id="clust4" class="cluster">
<title>cluster_machine</title>
<polygon fill="none" stroke="black" points="395.48,-153 395.48,-336 526.07,-336 526.07,-153 395.48,-153"/>
<text text-anchor="middle" x="460.77" y="-320.8" font-family="Times,serif" font-size="14.00">Machine to Machine</text>
</g>
<g id="clust5" class="cluster">
<title>cluster_AWS</title>
<polygon fill="none" stroke="black" points="400.78,-16 400.78,-145 520.77,-145 520.77,-16 400.78,-16"/>
<text text-anchor="middle" x="460.77" y="-129.8" font-family="Times,serif" font-size="14.00">AWS services</text>
</g>
<!-- Topic -->
<g id="node1" class="node">
<title>Topic</title>
<ellipse fill="none" stroke="black" cx="317.43" cy="-233" rx="50.09" ry="18"/>
<text text-anchor="middle" x="317.43" y="-229.3" font-family="Times,serif" font-size="14.00">SNS Topic</text>
</g>
<!-- SMS -->
<g id="node7" class="node">
<title>SMS</title>
<ellipse fill="none" stroke="black" cx="460.77" cy="-424" rx="28.7" ry="18"/>
<text text-anchor="middle" x="460.77" y="-420.3" font-family="Times,serif" font-size="14.00">SMS</text>
</g>
<!-- Topic&#45;&gt;SMS -->
<g id="edge11" class="edge">
<title>Topic&#45;&gt;SMS</title>
<path fill="none" stroke="black" d="M321.24,-251.18C327.33,-284.59 344.79,-356.04 387.48,-397 397.24,-406.37 410.55,-412.55 423.09,-416.6"/>
<polygon fill="black" stroke="black" points="422.33,-420.02 432.9,-419.41 424.25,-413.29 422.33,-420.02"/>
</g>
<!-- Email -->
<g id="node8" class="node">
<title>Email</title>
<ellipse fill="none" stroke="black" cx="460.77" cy="-370" rx="32.49" ry="18"/>
<text text-anchor="middle" x="460.77" y="-366.3" font-family="Times,serif" font-size="14.00">Email</text>
</g>
<!-- Topic&#45;&gt;Email -->
<g id="edge7" class="edge">
<title>Topic&#45;&gt;Email</title>
<path fill="none" stroke="black" d="M325.87,-250.91C336.41,-274.31 357.77,-315.21 387.48,-340 397.26,-348.16 409.57,-354.37 421.25,-358.96"/>
<polygon fill="black" stroke="black" points="420.24,-362.32 430.84,-362.44 422.63,-355.74 420.24,-362.32"/>
</g>
<!-- EmailJSON -->
<g id="node9" class="node">
<title>EmailJSON</title>
<ellipse fill="none" stroke="black" cx="460.77" cy="-287" rx="53.09" ry="18"/>
<text text-anchor="middle" x="460.77" y="-283.3" font-family="Times,serif" font-size="14.00">EmailJSON</text>
</g>
<!-- Topic&#45;&gt;EmailJSON -->
<g id="edge8" class="edge">
<title>Topic&#45;&gt;EmailJSON</title>
<path fill="none" stroke="black" d="M351.75,-246.15C363.08,-250.59 375.81,-255.54 387.48,-260 396.21,-263.34 405.55,-266.86 414.52,-270.22"/>
<polygon fill="black" stroke="black" points="413.47,-273.57 424.06,-273.79 415.92,-267.01 413.47,-273.57"/>
</g>
<!-- HTTP -->
<g id="node10" class="node">
<title>HTTP</title>
<ellipse fill="none" stroke="black" cx="460.77" cy="-233" rx="32.49" ry="18"/>
<text text-anchor="middle" x="460.77" y="-229.3" font-family="Times,serif" font-size="14.00">HTTP</text>
</g>
<!-- Topic&#45;&gt;HTTP -->
<g id="edge9" class="edge">
<title>Topic&#45;&gt;HTTP</title>
<path fill="none" stroke="black" d="M367.86,-233C384.16,-233 402.12,-233 417.81,-233"/>
<polygon fill="black" stroke="black" points="418.26,-236.5 428.26,-233 418.26,-229.5 418.26,-236.5"/>
</g>
<!-- HTTPS -->
<g id="node11" class="node">
<title>HTTPS</title>
<ellipse fill="none" stroke="black" cx="460.77" cy="-179" rx="37.89" ry="18"/>
<text text-anchor="middle" x="460.77" y="-175.3" font-family="Times,serif" font-size="14.00">HTTPS</text>
</g>
<!-- Topic&#45;&gt;HTTPS -->
<g id="edge10" class="edge">
<title>Topic&#45;&gt;HTTPS</title>
<path fill="none" stroke="black" d="M351.75,-219.85C363.08,-215.41 375.81,-210.46 387.48,-206 398.3,-201.86 410.07,-197.44 420.9,-193.39"/>
<polygon fill="black" stroke="black" points="422.39,-196.57 430.54,-189.8 419.94,-190.01 422.39,-196.57"/>
</g>
<!-- Application -->
<g id="node12" class="node">
<title>Application</title>
<ellipse fill="none" stroke="black" cx="460.77" cy="-96" rx="51.99" ry="18"/>
<text text-anchor="middle" x="460.77" y="-92.3" font-family="Times,serif" font-size="14.00">Application</text>
</g>
<!-- Topic&#45;&gt;Application -->
<g id="edge12" class="edge">
<title>Topic&#45;&gt;Application</title>
<path fill="none" stroke="black" d="M330.78,-215.51C343.78,-197.73 365.4,-169.89 387.48,-149 399.42,-137.7 413.81,-126.71 426.6,-117.68"/>
<polygon fill="black" stroke="black" points="428.91,-120.34 435.15,-111.77 424.93,-114.58 428.91,-120.34"/>
</g>
<!-- SQS -->
<g id="node13" class="node">
<title>SQS</title>
<ellipse fill="none" stroke="black" cx="460.77" cy="-42" rx="27" ry="18"/>
<text text-anchor="middle" x="460.77" y="-38.3" font-family="Times,serif" font-size="14.00">SQS</text>
</g>
<!-- Topic&#45;&gt;SQS -->
<g id="edge13" class="edge">
<title>Topic&#45;&gt;SQS</title>
<path fill="none" stroke="black" d="M321.24,-214.82C327.33,-181.41 344.79,-109.96 387.48,-69 397.64,-59.24 411.66,-52.94 424.65,-48.91"/>
<polygon fill="black" stroke="black" points="425.59,-52.28 434.3,-46.25 423.73,-45.53 425.59,-52.28"/>
</g>
<!-- Console -->
<g id="node2" class="node">
<title>Console</title>
<ellipse fill="none" stroke="black" cx="57.6" cy="-181" rx="39.79" ry="18"/>
<text text-anchor="middle" x="57.6" y="-177.3" font-family="Times,serif" font-size="14.00">Console</text>
</g>
<!-- Console&#45;&gt;Topic -->
<g id="edge4" class="edge">
<title>Console&#45;&gt;Topic</title>
<path fill="none" stroke="black" d="M96.75,-184.05C133.63,-187.51 190.88,-194.27 239.38,-206 250.68,-208.73 262.64,-212.48 273.68,-216.32"/>
<polygon fill="black" stroke="black" points="272.52,-219.62 283.11,-219.69 274.88,-213.03 272.52,-219.62"/>
</g>
<!-- Script -->
<g id="node3" class="node">
<title>Script</title>
<ellipse fill="none" stroke="black" cx="57.6" cy="-289" rx="31.7" ry="18"/>
<text text-anchor="middle" x="57.6" y="-285.3" font-family="Times,serif" font-size="14.00">Script</text>
</g>
<!-- AWSCLI -->
<g id="node4" class="node">
<title>AWSCLI</title>
<ellipse fill="none" stroke="black" cx="183.29" cy="-287" rx="44.39" ry="18"/>
<text text-anchor="middle" x="183.29" y="-283.3" font-family="Times,serif" font-size="14.00">AWSCLI</text>
</g>
<!-- Script&#45;&gt;AWSCLI -->
<g id="edge1" class="edge">
<title>Script&#45;&gt;AWSCLI</title>
<path fill="none" stroke="black" d="M89.49,-288.5C101.35,-288.31 115.26,-288.08 128.64,-287.87"/>
<polygon fill="black" stroke="black" points="128.79,-291.37 138.73,-287.7 128.68,-284.37 128.79,-291.37"/>
</g>
<!-- AWSCLI&#45;&gt;Topic -->
<g id="edge5" class="edge">
<title>AWSCLI&#45;&gt;Topic</title>
<path fill="none" stroke="black" d="M215.27,-274.34C232.89,-267.14 255.2,-258.02 274.38,-250.18"/>
<polygon fill="black" stroke="black" points="275.87,-253.36 283.8,-246.33 273.22,-246.88 275.87,-253.36"/>
</g>
<!-- Program -->
<g id="node5" class="node">
<title>Program</title>
<ellipse fill="none" stroke="black" cx="57.6" cy="-235" rx="41.69" ry="18"/>
<text text-anchor="middle" x="57.6" y="-231.3" font-family="Times,serif" font-size="14.00">Program</text>
</g>
<!-- Program&#45;&gt;AWSCLI -->
<g id="edge2" class="edge">
<title>Program&#45;&gt;AWSCLI</title>
<path fill="none" stroke="black" d="M88.22,-247.46C104.39,-254.25 124.62,-262.76 142.18,-270.14"/>
<polygon fill="black" stroke="black" points="141.04,-273.45 151.61,-274.1 143.75,-267 141.04,-273.45"/>
</g>
<!-- AWSSDK -->
<g id="node6" class="node">
<title>AWSSDK</title>
<ellipse fill="none" stroke="black" cx="183.29" cy="-233" rx="48.19" ry="18"/>
<text text-anchor="middle" x="183.29" y="-229.3" font-family="Times,serif" font-size="14.00">AWSSDK</text>
</g>
<!-- Program&#45;&gt;AWSSDK -->
<g id="edge3" class="edge">
<title>Program&#45;&gt;AWSSDK</title>
<path fill="none" stroke="black" d="M99.44,-234.34C107.63,-234.21 116.39,-234.07 125.02,-233.93"/>
<polygon fill="black" stroke="black" points="125.11,-237.43 135.06,-233.76 125,-230.43 125.11,-237.43"/>
</g>
<!-- AWSSDK&#45;&gt;Topic -->
<g id="edge6" class="edge">
<title>AWSSDK&#45;&gt;Topic</title>
<path fill="none" stroke="black" d="M231.62,-233C239.83,-233 248.47,-233 256.96,-233"/>
<polygon fill="black" stroke="black" points="257.2,-236.5 267.2,-233 257.2,-229.5 257.2,-236.5"/>
</g>
</g>
</svg>
